# xmcd
#
# Track frame offsets:
# 150
# 14842
# 26332
# 40630
# 50832
# 66910
# 80352
# 90700
# 101567
# 111032
# 123502
#
# Disc length: 1880 seconds
#
#
# Revision: 3
# Processed by: cddbd v1.5.1PL2 Copyright (c) Steve Scherf et al.
# Submitted via: FreeRIP 2.944 
#
DISCID=8d07560b
DTITLE=Olivia Newton John - Clearly Love
DYEAR=1975
DGENRE=Pop
TTITLE0=Something Better to Do
TTITLE1=Lovers
TTITLE2=Slow Down Jackson
TTITLE3=He's My Rock
TTITLE4=Sail into Tomorrow
TTITLE5=Crying, Laughing, Loving, Lying
TTITLE6=Clearly Love
TTITLE7=Let It Shine
TTITLE8=Summertime Blues
TTITLE9=Just a Lot of Folk (The Marshmallow Song)
TTITLE10=He Ain't Heavy... He's My Brother
EXTD=
EXTT0=
EXTT1=
EXTT2=
EXTT3=
EXTT4=
EXTT5=
EXTT6=
EXTT7=
EXTT8=
EXTT9=
EXTT10=
PLAYORDER=
